<?xml version="1.0" standalone="no"?>
<!DOCTYPE svg PUBLIC "-//W3C//DTD SVG 20010904//EN"
 "http://www.w3.org/TR/2001/REC-SVG-20010904/DTD/svg10.dtd">
<svg version="1.0" xmlns="http://www.w3.org/2000/svg"
 width="336.000000pt" height="336.000000pt" viewBox="0 0 336.000000 336.000000"
 preserveAspectRatio="xMidYMid meet">

<g transform="translate(0.000000,336.000000) scale(0.100000,-0.100000)"
fill="#000000" stroke="none">
<path d="M953 3344 c0 -7 4 -11 9 -8 4 3 8 0 8 -5 0 -6 -9 -11 -20 -11 -11 0
-20 -3 -20 -8 0 -10 79 -2 86 9 3 5 0 9 -6 9 -6 0 -9 4 -5 10 3 5 12 7 19 4 8
-3 17 0 21 6 5 8 -8 10 -42 9 -33 -2 -50 -7 -50 -15z"/>
<path d="M1120 3350 c0 -5 -10 -10 -22 -11 -13 0 -32 -4 -43 -9 -12 -4 36 -8
115 -8 74 0 149 -1 165 -3 46 -3 -126 -17 -255 -19 -127 -3 -171 -9 -177 -26
-3 -8 51 -13 183 -16 134 -3 189 -7 192 -16 2 -7 10 -12 18 -12 8 0 14 -4 14
-10 0 -9 -52 -15 -100 -12 -8 0 -81 3 -161 6 -81 3 -164 8 -186 12 -52 8 -75
-14 -45 -44 11 -11 28 -25 38 -31 15 -9 16 -12 5 -20 -11 -7 -12 -96 -6 -537
4 -291 8 -542 9 -558 1 -29 2 -29 60 -30 48 -1 60 2 64 17 2 9 10 17 17 17 7
0 12 8 12 18 0 39 4 50 19 56 13 5 15 1 10 -18 -4 -15 0 -28 9 -36 8 -7 15
-18 15 -26 0 -14 80 -14 113 0 19 9 23 41 6 51 -6 4 -7 19 -4 36 4 18 0 52
-10 84 -15 45 -15 58 -5 70 10 12 10 19 2 27 -8 8 -8 17 -1 30 10 19 8 93 -3
104 -4 3 -20 -2 -37 -11 -17 -8 -31 -13 -31 -11 0 10 51 56 62 56 6 0 3 9 -8
21 -14 16 -15 22 -5 28 10 7 11 13 2 30 -10 19 -9 22 14 31 22 8 24 14 19 37
-4 16 -20 39 -37 54 -38 32 -34 60 5 30 38 -31 44 -26 15 13 -16 20 -24 41
-21 53 4 14 -3 27 -20 41 -31 24 -33 32 -6 32 12 0 24 10 30 24 9 24 7 182 -2
192 -7 6 -54 -12 -50 -20 6 -15 1 -20 -8 -6 -5 8 -10 26 -10 39 0 21 3 23 34
17 25 -5 35 -3 40 9 4 12 18 15 67 12 47 -3 66 1 84 15 27 21 64 23 87 6 16
-13 28 -155 32 -373 1 -49 5 -98 10 -107 10 -21 30 -23 48 -5 7 8 41 17 76 20
51 5 64 4 68 -8 4 -8 12 -15 19 -15 8 0 17 -9 20 -21 10 -29 -3 -69 -21 -69
-9 0 -18 -9 -21 -20 -7 -25 -19 -26 -27 -2 -3 9 -15 37 -26 62 l-21 45 5 -65
c4 -57 3 -66 -12 -66 -9 -1 -25 -4 -34 -9 -13 -5 -18 -3 -18 9 0 13 -3 13 -20
-4 -11 -11 -26 -20 -34 -20 -16 0 -29 -159 -26 -325 2 -125 7 -153 28 -158 14
-4 13 -6 -5 -12 -27 -9 -31 -25 -6 -25 12 0 7 -8 -17 -29 -33 -28 -39 -29
-110 -26 -259 13 -387 28 -440 49 -8 3 -21 2 -29 -3 -20 -13 -2 -34 42 -52 58
-23 89 -61 46 -56 -14 1 -24 -6 -30 -21 -5 -14 -5 -21 0 -17 5 3 12 1 15 -4 4
-5 -4 -11 -16 -13 -12 -2 -23 -10 -25 -18 -4 -12 -2 -12 5 -2 5 7 13 12 18 10
5 -1 20 4 33 11 17 9 56 12 142 9 69 -2 113 0 106 5 -7 5 -2 7 15 4 15 -2 29
0 30 4 2 4 46 11 98 15 93 6 95 6 77 -12 -14 -15 -34 -19 -104 -21 -143 -3
-106 -13 50 -13 l147 0 6 -24 c7 -31 -11 -89 -34 -108 -28 -24 -362 -13 -487
16 -11 2 -23 5 -27 5 -13 2 -9 15 13 41 l21 25 -5 -27 c-4 -24 -2 -25 19 -16
13 6 21 15 18 20 -6 10 14 38 27 38 5 0 6 -7 3 -15 -4 -8 -2 -15 4 -15 8 0 22
22 22 36 0 2 -21 4 -46 4 -57 0 -104 -30 -104 -66 0 -35 -18 -30 -29 9 l-10
32 2 -35 c2 -35 3 -35 60 -44 43 -6 57 -12 53 -22 -3 -9 4 -16 19 -20 24 -6
37 -27 14 -22 -20 5 -17 -42 3 -53 10 -5 17 -13 17 -17 -1 -4 0 -11 1 -17 1
-5 1 -47 0 -92 -2 -96 4 -103 97 -103 37 0 67 -6 79 -15 10 -8 41 -15 69 -15
62 0 76 -9 79 -47 2 -16 6 -35 9 -40 5 -7 -11 -14 -42 -18 -28 -4 -52 -13 -55
-21 -7 -17 -92 -20 -98 -3 -5 14 -108 24 -108 11 0 -16 99 -26 243 -25 75 1
137 -2 137 -7 0 -21 -113 -33 -278 -31 -87 1 -131 -2 -127 -9 4 -6 60 -10 133
-11 138 0 142 -15 5 -18 -45 -1 -91 -4 -103 -6 -11 -2 -20 1 -20 8 0 7 -4 6
-10 -3 -5 -8 -10 -10 -10 -4 0 6 -26 16 -57 22 -57 11 -57 11 -10 8 68 -5 68
10 0 24 -32 7 -75 19 -96 27 -36 15 -38 14 -57 -8 -23 -29 -26 -91 -5 -109 8
-7 13 -16 10 -20 -2 -4 4 -15 15 -25 19 -17 20 -32 20 -196 0 -98 4 -189 9
-203 6 -14 6 -26 1 -28 -13 -5 -15 -110 -2 -134 6 -12 7 -25 3 -30 -13 -13
-20 -164 -9 -171 6 -3 7 -18 4 -34 -4 -22 0 -33 24 -52 33 -28 117 -63 127
-53 3 3 -1 6 -10 6 -10 0 -17 4 -17 9 0 12 53 21 65 11 19 -15 99 -17 128 -3
20 10 37 11 62 4 26 -7 37 -6 46 5 9 11 109 19 109 8 0 -7 -46 -51 -60 -57 -8
-4 1 -4 20 0 81 15 100 9 100 -34 l0 -23 739 0 739 0 1 77 c0 50 5 79 13 85
10 6 10 8 1 8 -17 0 -9 706 7 725 8 9 8 15 0 20 -8 5 -10 38 -6 104 3 53 9
303 12 556 6 390 10 611 13 661 1 7 11 15 24 19 13 4 17 8 10 12 -7 2 -13 20
-13 39 0 20 -5 34 -12 35 -7 0 -3 4 10 9 14 6 22 18 22 32 0 14 3 19 8 11 5
-8 12 -9 22 -2 13 8 13 10 1 18 -12 8 -12 12 -2 25 10 12 9 20 -3 43 l-15 28
-2 -45 -1 -45 -11 33 c-11 36 -2 53 32 59 22 3 33 -26 24 -67 -3 -15 0 -31 6
-34 7 -5 11 2 11 18 0 30 9 56 20 56 5 0 6 -10 3 -21 -5 -19 -4 -20 16 -10 32
18 25 79 -15 116 -20 18 14 295 36 295 4 0 17 -15 29 -32 l21 -33 0 27 c0 15
-5 30 -10 33 -7 5 -8 11 -1 18 5 7 8 59 6 119 -3 90 -2 106 11 101 16 -6 20
22 4 32 -5 3 -10 14 -10 23 1 15 2 15 15 -2 14 -19 15 -18 15 16 0 31 -3 36
-25 36 -24 0 -25 -3 -25 -69 0 -38 -4 -69 -8 -69 -5 0 -10 -26 -11 -57 -1 -69
-10 -115 -20 -109 -4 3 -6 71 -5 153 1 148 -3 142 -22 -29 -7 -68 -15 -78 -44
-57 -13 9 -13 10 2 5 14 -4 18 4 24 39 3 25 4 52 0 60 -5 14 -8 14 -25 -2 -16
-15 -20 -36 -24 -110 -3 -70 -1 -96 9 -104 8 -6 14 -24 14 -40 0 -16 5 -29 10
-29 6 0 10 8 10 17 0 12 3 14 11 6 7 -7 8 -24 4 -43 -5 -22 -10 -29 -17 -22
-7 7 -18 6 -34 -5 -19 -12 -22 -21 -17 -46 8 -43 23 -58 23 -23 0 15 4 25 9
22 7 -5 8 -20 2 -103 -1 -25 -21 -32 -21 -8 0 10 -7 15 -17 13 -12 -2 -18 3
-18 15 0 10 -7 22 -15 27 -11 7 -10 9 8 7 14 -1 22 -8 22 -20 0 -16 2 -17 15
-7 14 12 14 15 0 30 -8 9 -15 26 -15 37 0 12 -5 23 -10 25 -19 6 -23 70 -21
366 l3 292 -941 0 c-621 0 -941 -3 -941 -10z m95 -70 c-3 -5 -25 -10 -48 -9
-33 0 -38 2 -22 9 28 12 78 12 70 0z m266 -35 c-1 -5 -8 -9 -13 -7 -6 2 -17
-6 -24 -17 -11 -15 -23 -19 -45 -16 -34 4 -52 15 -25 15 9 0 14 5 11 10 -3 6
-17 10 -30 10 -13 0 -27 5 -30 10 -5 7 21 10 77 8 50 -2 82 -7 79 -13z m670
-89 c58 -5 109 -23 109 -38 0 -5 5 -6 10 -3 6 4 9 2 8 -3 -2 -4 25 -37 60 -72
72 -73 122 -166 148 -275 19 -83 14 -289 -8 -312 -11 -10 -13 3 -11 70 l2 82
-19 -75 c-31 -118 -51 -182 -56 -177 -2 2 2 30 11 63 22 87 18 304 -7 304 -5
0 -8 -10 -6 -22 3 -25 -13 -31 -138 -51 -38 -7 -82 -20 -96 -29 -30 -20 -41
-12 -52 37 -10 42 -29 85 -39 85 -4 0 -12 12 -17 26 -6 14 -14 22 -20 19 -5
-3 -7 0 -4 9 3 9 -2 17 -15 21 -12 3 -21 10 -21 15 0 4 -11 10 -25 12 -31 6
-32 -6 -4 -30 64 -52 109 -127 109 -181 0 -29 -24 -49 -35 -31 -4 6 -14 10
-24 10 -18 0 -27 -16 -94 -159 -40 -87 -49 -79 -41 42 7 121 -34 279 -82 317
-17 13 -18 13 -8 0 6 -8 21 -46 33 -84 19 -57 22 -84 19 -155 -3 -55 -11 -97
-22 -116 l-17 -30 6 35 c4 25 3 31 -4 20 -5 -8 -13 -11 -17 -8 -3 4 -20 -20
-36 -53 -33 -66 -49 -76 -21 -13 14 30 18 67 18 159 0 120 0 121 -34 178 -26
41 -38 54 -47 46 -8 -7 -14 -7 -19 1 -10 16 -28 12 -21 -5 6 -18 -5 -20 -21
-4 -9 9 -10 7 -6 -10 4 -14 1 -21 -9 -21 -9 0 -19 20 -27 51 -8 28 -22 60 -31
69 -16 16 -16 19 -4 24 9 3 24 1 35 -4 25 -14 24 -2 -3 27 l-21 23 26 0 c57 0
130 -23 161 -51 23 -19 39 -26 54 -22 12 3 20 9 17 13 -3 5 8 21 23 37 15 15
31 36 35 46 3 9 12 17 20 17 7 0 18 19 25 43 11 36 41 77 56 77 2 0 1 -11 -2
-25 -4 -24 -3 -24 32 11 20 20 36 37 36 39 0 6 -105 -6 -134 -16 -44 -14 -44
-1 0 17 56 24 134 41 174 37 19 -1 60 -5 91 -7z m-1111 -67 c0 -11 -4 -17 -10
-14 -5 3 -10 13 -10 21 0 8 5 14 10 14 6 0 10 -9 10 -21z m843 -54 c-5 -16
-33 -21 -33 -7 0 13 22 32 31 26 5 -2 6 -11 2 -19z m-840 -249 c-3 -13 -1 -26
5 -30 12 -7 0 -71 -13 -71 -14 0 -24 85 -14 113 11 29 28 20 22 -12z m92 -16
c3 -5 1 -10 -4 -10 -6 0 -11 5 -11 10 0 6 2 10 4 10 3 0 8 -4 11 -10z m-37
-54 c3 -12 -1 -17 -10 -14 -7 3 -15 13 -16 22 -3 12 1 17 10 14 7 -3 15 -13
16 -22z m1932 -178 c0 -16 -3 -19 -11 -11 -6 6 -8 16 -5 22 11 17 16 13 16
-11z m40 4 c0 -13 -12 -22 -22 -16 -10 6 -1 24 13 24 5 0 9 -4 9 -8z m-860
-72 c0 -5 -2 -10 -4 -10 -3 0 -8 5 -11 10 -3 6 -1 10 4 10 6 0 11 -4 11 -10z
m790 -50 c0 -5 -2 -10 -4 -10 -3 0 -8 5 -11 10 -3 6 -1 10 4 10 6 0 11 -4 11
-10z m-835 -50 c4 -6 -8 -10 -29 -10 -19 0 -38 -5 -42 -11 -4 -8 -9 -7 -15 2
-4 7 -5 17 -3 21 7 12 82 10 89 -2z m5 -60 c0 -5 -4 -10 -10 -10 -5 0 -10 5
-10 10 0 6 5 10 10 10 6 0 10 -4 10 -10z m-580 -50 c0 -5 -5 -10 -11 -10 -5 0
-7 5 -4 10 3 6 8 10 11 10 2 0 4 -4 4 -10z m550 -41 c0 -10 -4 -19 -10 -19 -5
0 -10 12 -10 26 0 14 4 23 10 19 6 -3 10 -15 10 -26z m-1100 -19 c0 -11 -2
-20 -4 -20 -2 0 -6 9 -9 20 -3 11 -1 20 4 20 5 0 9 -9 9 -20z m310 -349 c-24
-14 -150 -24 -150 -12 0 10 42 16 125 19 26 1 35 -1 25 -7z m40 -254 c0 -42
-78 -69 -146 -51 -15 4 -21 13 -20 29 1 21 8 25 61 33 99 15 105 15 105 -11z
m-180 -7 c0 -5 -2 -10 -4 -10 -3 0 -8 5 -11 10 -3 6 -1 10 4 10 6 0 11 -4 11
-10z m-33 -46 c-3 -3 -12 -4 -19 -1 -8 3 -5 6 6 6 11 1 17 -2 13 -5z m113 -33
c0 -22 -6 -24 -61 -22 -32 1 -60 -2 -64 -8 -4 -7 13 -11 50 -11 35 0 54 -4 50
-10 -3 -5 -17 -10 -30 -10 -13 0 -26 -4 -30 -9 -3 -6 -17 -4 -33 5 -15 7 -35
11 -44 8 -10 -3 -18 -1 -18 5 0 5 8 12 18 14 9 3 -2 5 -26 6 -37 1 -42 3 -33
19 8 14 27 18 115 20 72 3 106 0 106 -7z m-206 -504 c4 4 4 -1 0 -11 -5 -14
-9 -15 -15 -4 -7 10 -9 10 -9 -2 -1 -12 -2 -12 -10 2 -6 9 -7 24 -3 33 5 15 7
15 18 -4 6 -12 14 -18 19 -14z m159 -74 c-7 -2 -19 -2 -25 0 -7 3 -2 5 12 5
14 0 19 -2 13 -5z m144 -40 c-3 -10 -5 -4 -5 12 0 17 2 24 5 18 2 -7 2 -21 0
-30z m-67 -58 c3 -44 11 -90 17 -101 7 -12 10 -24 6 -27 -3 -3 -2 -23 2 -44 8
-36 8 -37 15 -13 5 14 8 41 9 61 1 28 6 38 21 42 25 7 29 -8 26 -113 l-2 -85
-37 -18 c-30 -15 -61 -18 -167 -18 -72 0 -156 5 -186 11 l-56 12 21 19 c25 24
26 35 5 43 -15 6 -15 8 0 25 13 15 14 20 4 23 -9 3 -13 26 -13 74 -1 38 -3 74
-7 79 -13 23 7 95 27 95 7 0 20 3 28 6 8 3 21 -2 30 -11 10 -9 18 -11 22 -5 3
5 25 10 48 11 23 0 51 4 62 9 11 5 43 8 70 7 l50 -2 5 -80z m414 47 c-13 -8
-34 -46 -45 -81 -7 -24 -8 -24 -6 7 1 17 4 32 8 32 3 0 11 11 17 25 6 14 17
25 24 25 9 0 10 -3 2 -8z m-168 -62 c16 -7 24 -14 18 -20 -13 -13 -64 0 -64
16 0 17 10 17 46 4z m54 -20 c0 -5 -4 -10 -10 -10 -5 0 -10 5 -10 10 0 6 5 10
10 10 6 0 10 -4 10 -10z m57 -52 c-3 -8 -6 -5 -6 6 -1 11 2 17 5 13 3 -3 4
-12 1 -19z m-453 -279 c-3 -6 -1 -15 6 -19 8 -5 7 -9 -4 -13 -10 -4 -16 -1
-16 8 0 8 -6 15 -12 15 -9 0 -8 4 2 10 20 13 33 13 24 -1z m58 -74 c9 -4 40
-2 68 4 63 14 70 14 70 0 0 -5 -20 -19 -45 -30 -35 -16 -66 -20 -147 -20 -199
1 -296 20 -263 53 8 7 298 1 317 -7z m-34 -87 c9 -9 12 -9 13 3 0 9 3 7 8 -5
12 -32 1 -66 -25 -72 -32 -8 -43 2 -40 34 2 15 4 33 5 40 1 15 23 16 39 0z
m-198 -23 c0 -14 -4 -25 -10 -25 -11 0 -14 33 -3 43 11 11 13 8 13 -18z m308
11 c19 -11 14 -34 -8 -40 -11 -3 -28 -8 -39 -11 -16 -5 -18 -1 -16 27 2 18 3
34 4 35 3 4 49 -5 59 -11z m-308 -56 c0 -5 -4 -10 -10 -10 -5 0 -10 5 -10 10
0 6 5 10 10 10 6 0 10 -4 10 -10z m360 -55 c0 -8 -15 -22 -32 -32 -47 -25
-339 -23 -392 2 -20 10 -36 21 -36 25 0 4 74 7 165 7 92 0 165 -4 165 -9 0 -5
5 -6 11 -3 8 6 46 14 112 24 4 0 7 -6 7 -14z m-490 -5 c0 -5 -2 -10 -4 -10 -3
0 -8 5 -11 10 -3 6 -1 10 4 10 6 0 11 -4 11 -10z"/>
<path d="M2135 3091 c39 -18 97 -69 63 -56 -12 5 -15 -1 -12 -30 2 -30 0 -36
-14 -31 -12 4 -11 1 4 -12 11 -9 20 -28 19 -40 -1 -13 3 -25 8 -29 5 -3 3 -10
-4 -15 -11 -7 -9 -9 6 -7 34 2 45 -1 45 -12 0 -8 -5 -8 -15 1 -13 10 -15 9
-15 -9 0 -23 -15 -29 -23 -8 -3 6 -6 2 -6 -9 -1 -12 6 -25 15 -28 25 -9 56 -7
49 4 -3 6 -1 10 4 10 28 0 -2 70 -30 70 -10 1 -9 4 3 11 24 13 54 -4 62 -35
12 -48 -19 -89 -65 -88 -25 1 -28 -2 -18 -14 27 -33 109 6 109 53 0 10 5 25
11 33 8 12 9 10 4 -7 -5 -17 -3 -22 8 -17 9 3 17 -6 24 -28 l11 -33 1 29 c1
26 -42 125 -72 163 -53 70 -162 153 -199 153 -7 0 5 -9 27 -19z m90 -91 c3 -5
1 -10 -4 -10 -6 0 -11 5 -11 10 0 6 2 10 4 10 3 0 8 -4 11 -10z"/>
<path d="M2090 2910 c0 -5 5 -10 10 -10 6 0 10 5 10 10 0 6 -4 10 -10 10 -5 0
-10 -4 -10 -10z"/>
<path d="M2068 2863 c-21 -5 -24 -23 -4 -23 22 0 46 11 46 21 0 9 -13 10 -42
2z"/>
<path d="M2115 2820 c-3 -5 -1 -10 4 -10 6 0 11 5 11 10 0 6 -2 10 -4 10 -3 0
-8 -4 -11 -10z"/>
<path d="M2143 2763 c3 -13 1 -23 -4 -23 -5 0 -9 -6 -9 -14 0 -17 32 -15 38 2
2 6 -4 22 -13 34 l-17 23 5 -22z"/>
<path d="M2350 2704 c0 -8 5 -12 10 -9 6 3 10 10 10 16 0 5 -4 9 -10 9 -5 0
-10 -7 -10 -16z"/>
<path d="M1930 2564 c0 -8 5 -12 10 -9 6 4 8 11 5 16 -9 14 -15 11 -15 -7z"/>
<path d="M1061 588 c0 -7 4 -22 9 -33 7 -17 9 -17 9 -2 1 9 5 17 11 17 5 0 7
7 4 15 -7 18 -34 20 -33 3z"/>
<path d="M988 393 c7 -3 16 -2 19 1 4 3 -2 6 -13 5 -11 0 -14 -3 -6 -6z"/>
<path d="M3065 3314 c0 -25 -3 -48 -7 -50 -4 -2 -7 -29 -7 -60 0 -52 2 -55 22
-48 31 9 32 11 17 39 -11 21 -11 34 0 80 11 44 11 57 0 70 -20 24 -25 18 -25
-31z"/>
<path d="M3228 3334 c-5 -4 -8 -16 -8 -28 0 -14 3 -17 11 -9 6 6 9 19 7 28 -1
9 -6 13 -10 9z"/>
<path d="M3184 3313 c-6 -10 -9 -24 -7 -30 8 -23 19 -14 21 17 3 35 1 36 -14
13z"/>
<path d="M3132 3295 c0 -16 2 -22 5 -12 2 9 2 23 0 30 -3 6 -5 -1 -5 -18z"/>
<path d="M3132 3225 c0 -16 2 -22 5 -12 2 9 2 23 0 30 -3 6 -5 -1 -5 -18z"/>
<path d="M3055 3119 c-9 -26 -5 -30 23 -22 13 3 22 13 22 24 0 26 -37 25 -45
-2z"/>
<path d="M3212 3030 c0 -14 2 -19 5 -12 2 6 2 18 0 25 -3 6 -5 1 -5 -13z"/>
<path d="M3213 2940 c0 -36 2 -50 4 -32 2 17 2 47 0 65 -2 17 -4 3 -4 -33z"/>
<path d="M3033 2826 c3 -8 -2 -16 -14 -19 -19 -5 -27 -27 -9 -27 6 0 10 5 10
10 0 20 19 10 23 -12 2 -13 5 -4 6 20 0 25 -3 42 -10 42 -6 0 -9 -6 -6 -14z"/>
<path d="M3185 2777 c-4 -10 -5 -21 -1 -24 10 -10 18 4 13 24 -4 17 -4 17 -12
0z"/>
<path d="M3194 2613 c2 -13 0 -23 -5 -23 -5 0 -9 5 -9 11 0 5 -4 7 -10 4 -5
-3 -10 -15 -10 -25 0 -14 5 -18 18 -14 15 5 15 4 -2 -10 -16 -13 -17 -20 -8
-43 6 -15 12 -39 14 -52 2 -14 8 -26 15 -28 16 -6 21 120 6 165 -7 21 -11 27
-9 15z"/>
<path d="M1400 2574 c0 -8 5 -12 10 -9 6 4 8 11 5 16 -9 14 -15 11 -15 -7z"/>
<path d="M1360 2555 c0 -9 5 -15 11 -13 6 2 11 8 11 13 0 5 -5 11 -11 13 -6 2
-11 -4 -11 -13z"/>
<path d="M3130 2425 c0 -8 5 -15 10 -15 6 0 10 7 10 15 0 8 -4 15 -10 15 -5 0
-10 -7 -10 -15z"/>
<path d="M3140 2375 c0 -14 -6 -25 -12 -25 -9 0 -14 -18 -15 -50 -2 -36 1 -48
10 -44 14 5 15 -65 2 -121 -5 -23 -4 -26 4 -15 8 11 11 -5 11 -64 0 -44 3 -76
7 -72 4 4 6 28 4 54 -4 60 7 51 13 -11 3 -35 0 -52 -12 -64 -10 -10 -18 -35
-19 -60 -1 -39 0 -43 18 -38 20 7 28 -18 9 -30 -5 -3 -10 -1 -10 4 0 6 -4 11
-8 11 -13 0 -25 -264 -12 -268 5 -2 10 -13 10 -25 1 -21 1 -21 15 3 9 16 15
19 15 10 1 -10 4 -8 10 6 4 11 11 139 15 285 3 145 8 327 10 404 3 88 1 134
-5 125 -6 -8 -10 -42 -11 -75 l-1 -60 -9 50 c-15 82 -19 95 -29 95 -6 0 -10
-11 -10 -25z m17 -267 c-3 -8 -6 -5 -6 6 -1 11 2 17 5 13 3 -3 4 -12 1 -19z"/>
<path d="M3078 2323 c-3 -38 -1 -79 3 -93 4 -16 8 10 8 68 1 50 -1 92 -3 92
-2 0 -6 -30 -8 -67z"/>
<path d="M3032 2249 c3 -24 1 -56 -3 -71 -4 -16 -4 -28 1 -28 4 0 13 -17 18
-37 9 -31 10 -20 8 66 -2 76 -6 106 -15 109 -10 3 -12 -6 -9 -39z"/>
<path d="M2992 2135 c0 -16 2 -22 5 -12 2 9 2 23 0 30 -3 6 -5 -1 -5 -18z"/>
<path d="M3003 1974 c-7 -7 -13 -18 -13 -24 0 -15 20 -12 26 5 9 22 0 35 -13
19z"/>
<path d="M958 1783 c7 -3 16 -2 19 1 4 3 -2 6 -13 5 -11 0 -14 -3 -6 -6z"/>
<path d="M3091 1756 c-1 -26 2 -37 9 -30 6 6 6 21 1 39 -9 30 -9 30 -10 -9z"/>
<path d="M1088 1763 c7 -3 16 -2 19 1 4 3 -2 6 -13 5 -11 0 -14 -3 -6 -6z"/>
<path d="M1108 1736 c-10 -7 -18 -22 -17 -32 0 -11 3 -13 6 -6 7 19 26 14 19
-5 -6 -17 -5 -17 8 0 19 24 28 21 24 -10 -2 -15 2 -28 10 -30 22 -8 14 52 -10
75 -20 17 -26 19 -40 8z"/>
<path d="M3013 1657 c-9 -19 -8 -24 3 -24 8 0 14 10 14 24 0 13 -2 23 -3 23
-2 0 -9 -10 -14 -23z"/>
<path d="M3092 1660 c0 -14 2 -19 5 -12 2 6 2 18 0 25 -3 6 -5 1 -5 -13z"/>
<path d="M3010 1605 c-11 -13 -10 -14 4 -9 9 3 16 10 16 15 0 13 -6 11 -20 -6z"/>
<path d="M3110 1530 c0 -5 5 -10 10 -10 6 0 10 5 10 10 0 6 -4 10 -10 10 -5 0
-10 -4 -10 -10z"/>
<path d="M3140 1484 c0 -14 4 -23 10 -19 6 3 10 15 10 26 0 10 -4 19 -10 19
-5 0 -10 -12 -10 -26z"/>
<path d="M3094 1486 c-8 -22 3 -33 18 -18 9 9 9 15 0 24 -9 9 -13 7 -18 -6z"/>
<path d="M3140 1370 c0 -5 5 -10 10 -10 6 0 10 5 10 10 0 6 -4 10 -10 10 -5 0
-10 -4 -10 -10z"/>
<path d="M3105 1359 c-10 -15 3 -25 16 -12 7 7 7 13 1 17 -6 3 -14 1 -17 -5z"/>
<path d="M3020 1330 c0 -5 5 -10 10 -10 6 0 10 5 10 10 0 6 -4 10 -10 10 -5 0
-10 -4 -10 -10z"/>
<path d="M3140 1278 c0 -19 2 -20 10 -8 13 19 13 30 0 30 -5 0 -10 -10 -10
-22z"/>
<path d="M917 1248 c-34 -38 -43 -85 -19 -92 34 -10 133 -9 143 1 7 7 -4 14
-37 22 -33 8 -44 15 -35 21 11 6 9 11 -9 20 -16 9 -20 17 -16 36 8 31 6 30
-27 -8z"/>
<path d="M3106 1223 c-11 -11 -6 -23 9 -23 8 0 15 4 15 9 0 13 -16 22 -24 14z"/>
<path d="M3106 1182 c-5 -8 -19 -198 -16 -222 1 -8 1 -71 -1 -140 -1 -69 -2
-168 -3 -220 -1 -58 -5 -94 -11 -92 -5 1 -10 16 -10 32 0 18 -5 30 -13 30 -10
0 -13 -24 -13 -102 0 -57 0 -114 0 -128 0 -14 2 -54 6 -89 4 -46 2 -67 -6 -72
-18 -11 -19 -145 -1 -142 6 2 12 -6 12 -17 0 -29 27 -25 34 5 4 14 11 23 17
20 5 -4 7 -15 4 -26 -5 -15 -1 -19 14 -19 16 0 21 7 23 28 8 154 23 637 22
747 -1 136 -15 296 -25 289 -5 -3 -9 24 -9 60 0 58 -9 81 -24 58z m34 -518 c0
-8 -5 -12 -10 -9 -6 4 -8 11 -5 16 9 14 15 11 15 -7z m-3 -66 c-3 -8 -6 -5 -6
6 -1 11 2 17 5 13 3 -3 4 -12 1 -19z m-10 -60 c-3 -8 -6 -5 -6 6 -1 11 2 17 5
13 3 -3 4 -12 1 -19z m15 -74 c-3 -19 -7 -22 -13 -12 -13 20 -11 38 5 38 9 0
12 -8 8 -26z m-13 -118 c-9 -8 -10 -5 -5 14 3 14 7 36 8 50 1 14 3 8 5 -14 3
-22 -1 -43 -8 -50z m-49 -26 c0 -5 -7 -10 -16 -10 -8 0 -12 5 -9 10 3 6 10 10
16 10 5 0 9 -4 9 -10z m-30 -220 c0 -11 -4 -20 -10 -20 -5 0 -10 9 -10 20 0
11 5 20 10 20 6 0 10 -9 10 -20z m43 -32 c-2 -4 -11 -4 -20 -1 -11 4 -13 8 -5
11 7 2 12 13 13 25 1 20 2 20 8 -3 5 -14 6 -28 4 -32z"/>
<path d="M3037 943 c-4 -3 -7 -11 -7 -17 0 -6 5 -5 12 2 6 6 9 14 7 17 -3 3
-9 2 -12 -2z"/>
<path d="M3032 839 c-5 -19 -5 -35 0 -37 12 -5 10 -80 -4 -84 -8 -3 -8 -9 -1
-23 10 -18 11 -18 20 1 10 19 9 161 -1 171 -2 3 -9 -10 -14 -28z"/>
<path d="M3043 626 c2 -20 7 -37 12 -39 15 -3 13 52 -2 64 -9 8 -11 2 -10 -25z"/>
<path d="M2990 331 c0 -6 5 -13 10 -16 6 -3 10 1 10 9 0 9 -4 16 -10 16 -5 0
-10 -4 -10 -9z"/>
<path d="M2990 285 c0 -8 5 -15 10 -15 6 0 10 7 10 15 0 8 -4 15 -10 15 -5 0
-10 -7 -10 -15z"/>
<path d="M2990 194 c0 -8 5 -12 10 -9 6 4 8 11 5 16 -9 14 -15 11 -15 -7z"/>
<path d="M2991 144 c0 -11 3 -14 6 -6 3 7 2 16 -1 19 -3 4 -6 -2 -5 -13z"/>
<path d="M916 75 c9 -23 99 -45 209 -50 l100 -4 -85 9 c-92 10 -159 25 -202
47 -24 11 -27 11 -22 -2z"/>
<path d="M1298 43 c7 -3 16 -2 19 1 4 3 -2 6 -13 5 -11 0 -14 -3 -6 -6z"/>
<path d="M1393 34 c-3 -9 0 -20 8 -25 24 -15 33 -10 16 9 -10 10 -14 22 -10
25 3 4 3 7 -1 7 -3 0 -9 -7 -13 -16z"/>
<path d="M1243 33 c9 -2 23 -2 30 0 6 3 -1 5 -18 5 -16 0 -22 -2 -12 -5z"/>
<path d="M3000 31 c0 -6 5 -13 10 -16 6 -3 10 1 10 9 0 9 -4 16 -10 16 -5 0
-10 -4 -10 -9z"/>
</g>
</svg>
