<?xml version="1.0" standalone="no"?>
<!DOCTYPE svg PUBLIC "-//W3C//DTD SVG 20010904//EN"
 "http://www.w3.org/TR/2001/REC-SVG-20010904/DTD/svg10.dtd">
<svg version="1.0" xmlns="http://www.w3.org/2000/svg"
 width="264.000000pt" height="336.000000pt" viewBox="0 0 264.000000 336.000000"
 preserveAspectRatio="xMidYMid meet">

<g transform="translate(0.000000,336.000000) scale(0.100000,-0.100000)"
fill="#000000" stroke="none">
<path d="M0 3339 c0 -24 23 -21 28 4 2 10 -3 17 -12 17 -10 0 -16 -9 -16 -21z"/>
<path d="M57 3353 c-3 -5 -8 -23 -12 -40 -5 -23 -12 -33 -26 -33 -19 0 -19
-29 -19 -1640 l0 -1640 628 1 627 0 -140 40 c-77 21 -277 73 -445 114 -168 42
-322 81 -342 86 l-38 10 -1 284 c-1 157 -2 291 -3 297 -1 14 49 13 101 -1 l28
-7 3 -199 c2 -110 5 -201 7 -203 2 -2 14 2 27 9 12 7 28 12 35 11 6 -1 23 9
37 23 30 30 41 31 159 4 50 -11 142 -31 202 -44 61 -13 153 -33 205 -45 52
-11 136 -30 185 -40 50 -11 122 -26 160 -35 39 -8 169 -36 290 -60 121 -25
248 -51 282 -58 l62 -13 3 125 3 126 44 -3 44 -4 -6 99 c-4 70 -17 137 -45
238 -32 113 -41 163 -46 260 -3 66 -6 578 -7 1138 -1 830 -4 1017 -14 1017 -8
0 -80 -16 -162 -36 -81 -19 -193 -46 -248 -59 -55 -13 -174 -42 -265 -64 -91
-22 -329 -78 -530 -125 -201 -48 -378 -90 -395 -94 l-30 -8 -3 -840 -2 -840
-45 -12 c-91 -24 -81 -98 -89 656 -5 570 -8 1088 -6 1170 0 17 6 22 26 22 14
0 23 3 21 8 -3 4 10 8 29 9 64 3 145 24 138 35 -4 7 -2 8 5 4 13 -8 231 42
231 54 0 4 12 7 28 7 45 0 84 12 76 25 -5 8 -2 9 10 5 18 -7 67 4 231 51 55
16 166 46 247 68 81 21 142 41 137 45 -5 3 5 5 23 5 45 0 140 28 131 39 -5 4
1 5 11 1 22 -8 86 11 86 25 0 6 8 8 19 4 10 -3 24 1 31 10 7 8 18 15 24 15 6
0 4 -5 -4 -10 -18 -13 36 -2 60 11 8 4 -386 8 -877 9 -490 0 -894 -3 -896 -7z
m513 -333 c-8 -5 -19 -10 -25 -10 -5 0 -3 5 5 10 8 5 20 10 25 10 6 0 3 -5 -5
-10z m-313 -212 c-3 -8 -6 -5 -6 6 -1 11 2 17 5 13 3 -3 4 -12 1 -19z m1030
-30 c-3 -8 -6 -5 -6 6 -1 11 2 17 5 13 3 -3 4 -12 1 -19z m-320 -20 c-3 -8 -6
-5 -6 6 -1 11 2 17 5 13 3 -3 4 -12 1 -19z m53 -28 c0 -16 -2 -30 -4 -30 -2 0
-6 14 -8 30 -3 17 -1 30 4 30 4 0 8 -13 8 -30z m-43 -22 c-3 -7 -5 -2 -5 12 0
14 2 19 5 13 2 -7 2 -19 0 -25z m50 -80 c-2 -13 -4 -5 -4 17 -1 22 1 32 4 23
2 -10 2 -28 0 -40z m25 -1030 c-9 -9 -12 -7 -12 12 0 19 3 21 12 12 9 -9 9
-15 0 -24z m73 12 c0 -7 -6 -15 -12 -17 -8 -3 -13 4 -13 17 0 13 5 20 13 18 6
-3 12 -11 12 -18z m41 -46 l111 -7 0 -39 c0 -27 -4 -37 -12 -34 -7 2 -18 -1
-24 -7 -9 -9 -14 -8 -21 3 -7 11 -12 12 -18 3 -4 -6 -16 -11 -27 -10 -12 1
-20 -4 -20 -13 0 -8 9 -15 20 -15 11 0 25 -3 32 -8 6 -4 13 -1 16 5 4 10 7 11
18 1 7 -7 8 -13 3 -13 -6 0 -20 -9 -33 -21 -21 -20 -23 -20 -35 -4 -12 16 -13
16 -19 1 -10 -25 2 -49 19 -35 26 21 47 -14 22 -39 -9 -9 -14 -7 -23 5 -11 15
-13 14 -20 -6 -7 -24 13 -57 22 -35 5 14 63 -11 63 -26 0 -15 -18 -21 -26 -9
-9 15 -24 -9 -17 -28 4 -10 9 -11 19 -2 11 9 15 7 20 -5 4 -12 10 -14 18 -7
10 8 12 -3 10 -48 -4 -75 -6 -85 -24 -93 -39 -18 -258 -1 -261 20 -4 32 -6
139 -2 146 3 4 9 2 14 -5 6 -10 9 -5 9 14 0 16 -4 26 -10 22 -9 -6 -12 -2 -14
27 -1 6 7 12 17 14 9 1 17 -3 17 -9 0 -7 4 -6 9 2 5 8 7 21 4 28 -5 12 -7 12
-14 1 -7 -10 -9 -10 -9 2 0 13 -1 13 -10 0 -9 -13 -10 -13 -11 0 0 8 -2 63 -5
123 l-4 107 42 0 c24 0 93 -3 154 -6z"/>
<path d="M990 1469 c0 -11 5 -17 10 -14 6 3 10 0 10 -7 0 -8 5 -6 11 5 12 20
7 30 -16 33 -9 1 -15 -6 -15 -17z"/>
<path d="M1075 1470 c-8 -13 4 -32 16 -25 12 8 12 35 0 35 -6 0 -13 -4 -16
-10z"/>
<path d="M992 1400 c0 -14 2 -19 5 -12 2 6 2 18 0 25 -3 6 -5 1 -5 -13z"/>
<path d="M1116 1405 c-3 -9 -2 -24 3 -33 9 -16 10 -16 16 0 4 9 2 24 -3 33 -8
16 -9 16 -16 0z"/>
<path d="M1040 1390 c0 -19 3 -21 12 -12 9 9 9 15 0 24 -9 9 -12 7 -12 -12z"/>
<path d="M1075 1400 c-4 -6 -3 -16 3 -22 6 -6 12 -6 17 2 4 6 3 16 -3 22 -6 6
-12 6 -17 -2z"/>
<path d="M1076 1331 c-4 -6 -3 -18 2 -27 8 -15 10 -14 16 2 8 20 -8 42 -18 25z"/>
<path d="M1120 1314 c0 -8 5 -12 10 -9 6 4 8 11 5 16 -9 14 -15 11 -15 -7z"/>
<path d="M1040 1250 c0 -19 3 -21 12 -12 9 9 9 15 0 24 -9 9 -12 7 -12 -12z"/>
<path d="M1074 1257 c-9 -24 6 -44 18 -22 7 11 6 21 -1 28 -7 7 -12 6 -17 -6z"/>
<path d="M1114 1256 c-4 -10 -2 -22 4 -28 8 -8 13 -7 18 6 4 10 2 22 -4 28 -8
8 -13 7 -18 -6z"/>
<path d="M1154 1257 c-3 -9 -1 -24 4 -33 9 -16 10 -15 17 5 8 27 -11 54 -21
28z"/>
<path d="M2294 3338 c3 -13 6 -769 6 -1680 l0 -1658 170 0 170 0 0 1680 0
1680 -176 0 -176 0 6 -22z"/>
</g>
</svg>
