<?xml version="1.0" standalone="no"?>
<!DOCTYPE svg PUBLIC "-//W3C//DTD SVG 20010904//EN"
 "http://www.w3.org/TR/2001/REC-SVG-20010904/DTD/svg10.dtd">
<svg version="1.0" xmlns="http://www.w3.org/2000/svg"
 width="310.000000pt" height="448.000000pt" viewBox="0 0 310.000000 448.000000"
 preserveAspectRatio="xMidYMid meet">

<g transform="translate(0.000000,448.000000) scale(0.100000,-0.100000)"
fill="#000000" stroke="none">
<path d="M1319 4065 c44 -46 81 -92 81 -101 0 -14 -13 -16 -117 -10 -65 3
-293 7 -506 8 l-389 3 1 -280 c1 -154 4 -388 6 -520 5 -252 10 -725 21 -1760
4 -341 9 -687 13 -770 l6 -150 80 -6 c44 -3 94 -12 110 -19 20 -9 85 -14 200
-15 l170 -2 3 -222 c2 -187 5 -221 17 -221 13 0 14 29 11 202 -4 208 0 262 15
252 10 -6 1057 -5 1204 1 50 2 106 9 125 15 19 7 78 15 130 19 l95 6 6 210 c4
116 12 559 19 985 6 426 15 932 19 1124 7 325 9 349 27 359 10 6 35 29 56 52
35 38 47 44 133 64 105 25 152 29 208 17 30 -7 37 -5 37 7 0 11 -19 16 -87 21
-49 4 -115 12 -149 18 -46 8 -69 8 -94 0 -44 -16 -70 -15 -70 2 0 7 -11 30
-25 51 -25 36 -26 42 -25 189 1 83 1 194 0 247 l0 96 -532 7 -531 7 -56 60
c-52 56 -64 63 -165 100 -61 21 -114 39 -119 39 -6 0 27 -38 72 -85z m344
-558 l108 -3 72 -74 c105 -110 136 -150 149 -193 10 -33 9 -43 -10 -78 -12
-23 -25 -59 -28 -80 -8 -45 -14 -47 -57 -16 -18 13 -60 36 -94 52 -62 28 -63
28 -145 16 -81 -12 -195 -56 -230 -88 -10 -9 -25 -29 -32 -45 -14 -28 -14 -28
12 -22 15 4 35 11 45 16 48 24 233 78 270 78 46 0 151 -45 179 -77 17 -18 17
-23 2 -74 -34 -120 -76 -239 -84 -239 -5 0 -18 17 -30 38 -25 45 -80 85 -138
102 -55 17 -63 8 -22 -26 18 -15 37 -33 44 -40 6 -7 32 -35 59 -63 35 -37 47
-58 47 -81 0 -28 -3 -30 -34 -30 -19 0 -48 8 -64 17 -67 39 -111 -10 -138
-156 -19 -103 -16 -147 10 -143 10 2 24 9 31 15 26 26 134 178 140 197 3 11
10 20 15 20 9 0 33 -98 50 -206 10 -63 9 -179 -1 -188 -2 -2 -62 -9 -134 -16
-143 -12 -182 -28 -123 -49 76 -28 458 -23 533 6 22 8 -20 43 -52 43 -21 0
-23 3 -17 23 4 12 10 24 15 27 4 3 11 18 14 33 4 15 11 30 16 33 5 3 9 13 9
23 0 10 7 24 16 31 8 8 14 25 12 39 -2 14 3 31 9 36 25 20 37 186 18 241 -5
15 -1 27 13 40 11 11 44 55 73 99 29 44 57 82 61 83 4 2 8 10 8 17 0 7 13 26
28 43 15 16 33 40 40 53 10 20 11 0 7 -106 -3 -71 -5 -308 -6 -525 0 -406 -9
-556 -35 -576 -8 -6 -14 -26 -14 -45 0 -26 3 -30 10 -19 8 13 10 12 10 -3 0
-10 -6 -25 -14 -33 -8 -7 -16 -19 -18 -25 -2 -6 -50 -13 -121 -16 -138 -7
-127 -23 -96 154 27 151 27 157 9 159 -31 2 -32 5 -16 29 9 13 16 36 16 51 0
25 -2 26 -41 20 -39 -6 -89 -31 -89 -45 0 -14 42 -41 65 -43 14 -1 25 -5 25
-9 0 -9 -160 -18 -204 -11 l-40 7 33 37 33 38 -26 11 c-20 10 -38 9 -80 -1
-43 -10 -67 -10 -119 0 -36 6 -75 9 -86 5 -12 -3 -21 -2 -21 3 0 15 -48 33
-52 19 -9 -24 0 -85 15 -108 15 -24 62 -297 53 -307 -3 -2 -89 -7 -192 -10
-173 -5 -188 -4 -201 13 -20 28 -16 35 16 35 21 0 32 -6 36 -20 8 -24 40 -27
49 -4 10 25 7 72 -5 79 -5 4 -19 -1 -29 -10 -27 -24 -80 -12 -80 18 -1 92 -14
183 -26 193 -8 6 -14 16 -14 23 0 7 -19 11 -52 10 -67 -1 -88 -7 -88 -24 0 -7
-7 -15 -15 -19 -12 -4 -15 -33 -17 -148 l-3 -143 -96 -3 c-93 -3 -97 -2 -102
20 -3 13 -6 167 -7 343 -1 176 -3 333 -5 349 -8 62 -17 1035 -11 1088 6 50 11
57 36 68 16 7 31 10 33 9 2 -2 11 2 20 9 22 19 49 21 297 30 198 6 301 6 593
-1z m412 -5 c86 -4 175 -32 217 -67 16 -14 33 -25 38 -25 4 0 10 -11 12 -23 4
-18 -5 -32 -34 -56 -24 -20 -45 -30 -55 -27 -10 4 -27 -6 -49 -29 -39 -41 -44
-43 -44 -11 0 30 -24 89 -44 105 -12 10 -17 9 -28 -8 -7 -12 -16 -21 -20 -21
-9 0 -43 95 -52 144 -6 32 -5 38 6 30 7 -6 31 -11 53 -12z m273 -334 l-3 -123
-100 -157 c-100 -157 -131 -190 -120 -125 13 77 15 97 25 177 12 94 23 136 53
195 20 41 123 155 139 155 6 0 8 -51 6 -122z m-268 -419 c0 -10 -4 -19 -9 -19
-10 0 -21 36 -14 44 10 10 23 -5 23 -25z m3 -209 c1 -38 -1 -66 -5 -64 -4 3
-8 -4 -8 -16 0 -32 -36 -151 -59 -195 -12 -21 -21 -44 -21 -51 0 -15 -25 -36
-33 -27 -4 3 0 17 9 31 14 22 14 25 -3 38 -10 7 -24 11 -30 9 -7 -2 -13 0 -13
5 0 6 -14 10 -30 10 -27 0 -31 -4 -43 -47 l-12 -48 -5 50 c-3 28 -1 74 3 104
5 35 4 57 -2 61 -15 8 6 124 31 173 22 43 44 50 33 10 -5 -23 1 -19 49 29 30
31 62 71 71 89 l18 33 23 -63 c14 -37 25 -90 27 -131z m-284 -85 c-1 -45 -3
-54 -9 -35 -12 38 -12 129 0 110 5 -8 9 -42 9 -75z m-749 -579 c0 -30 -2 -33
-22 -28 -12 3 -17 7 -10 10 7 2 9 8 6 13 -8 13 3 39 16 39 5 0 10 -15 10 -34z
m1000 -12 c0 -3 -11 -43 -25 -89 -14 -46 -24 -87 -23 -92 2 -4 -1 -9 -6 -10
-5 -2 -9 23 -7 55 2 46 0 55 -10 45 -18 -18 -29 -16 -29 3 0 9 9 18 20 21 22
6 24 11 11 33 -13 20 -2 34 15 19 11 -9 14 -8 14 5 0 9 8 16 20 16 11 0 20 -3
20 -6z m-1003 -80 c-3 -3 -12 -4 -19 -1 -8 3 -5 6 6 6 11 1 17 -2 13 -5z m879
-42 c-11 -10 -15 4 -8 28 l7 25 3 -23 c2 -13 1 -26 -2 -30z m-883 -9 c-13 -2
-35 -2 -50 0 -16 2 -5 4 22 4 28 0 40 -2 28 -4z m879 -157 l-11 -21 -7 23 c-6
22 -24 31 -24 12 0 -6 -8 -5 -20 2 -29 18 -26 54 5 62 13 3 30 16 37 29 11 20
13 18 21 -32 6 -35 5 -61 -1 -75z m-872 63 c0 -6 -4 -7 -10 -4 -5 3 -10 11
-10 16 0 6 5 7 10 4 6 -3 10 -11 10 -16z m857 -117 c-2 -15 -7 -34 -12 -42
-11 -18 -26 20 -18 49 8 32 33 26 30 -7z m173 -358 c0 -12 8 -25 17 -28 14 -6
15 -9 4 -15 -11 -7 -9 -13 8 -30 11 -11 23 -32 25 -46 3 -14 15 -42 27 -61 12
-20 23 -46 25 -58 1 -11 5 -35 7 -53 2 -17 1 -37 -3 -43 -17 -27 -99 -30 -611
-24 l-527 7 -4 121 c-5 101 -3 123 10 133 11 9 19 10 29 2 7 -6 19 -9 27 -6 7
3 18 1 24 -5 6 -6 16 -7 24 -2 7 5 121 7 253 6 132 -1 265 2 295 7 30 5 90 14
133 21 42 7 77 16 77 20 0 4 18 12 40 19 28 8 40 17 40 31 0 19 19 28 58 26
16 0 22 -6 22 -22z m-1088 -257 l3 -92 -55 -3 c-30 -2 -78 -1 -106 3 -48 6
-50 8 -50 35 0 17 3 30 8 30 4 0 8 5 8 11 0 5 -5 7 -11 4 -7 -5 -9 5 -7 26 2
20 8 33 15 32 6 -2 15 7 18 18 5 15 13 19 27 16 11 -3 21 0 25 9 3 8 13 14 23
14 10 0 25 7 34 15 18 18 33 19 39 3 3 -7 6 -4 7 7 4 47 18 -39 22 -128z"/>
<path d="M1530 2814 c0 -8 5 -12 10 -9 6 3 10 10 10 16 0 5 -4 9 -10 9 -5 0
-10 -7 -10 -16z"/>
<path d="M2110 2614 c0 -8 5 -12 10 -9 6 4 8 11 5 16 -9 14 -15 11 -15 -7z"/>
<path d="M801 2419 c-1 -35 31 -178 37 -160 2 7 -3 41 -11 75 -9 33 -18 72
-20 86 l-4 25 -2 -26z"/>
<path d="M1000 2235 c-1 -11 -4 -15 -7 -7 -6 15 -33 16 -33 2 0 -6 7 -13 15
-16 9 -4 15 -20 16 -38 1 -30 1 -29 10 9 5 22 8 46 5 55 -2 10 -4 9 -6 -5z"/>
<path d="M996 2085 c-3 -8 -1 -15 4 -15 6 0 10 7 10 15 0 8 -2 15 -4 15 -2 0
-6 -7 -10 -15z"/>
<path d="M2103 1990 c-9 -70 -3 -88 17 -51 12 24 14 121 1 121 -4 0 -12 -31
-18 -70z"/>
</g>
</svg>
