<?xml version="1.0" standalone="no"?>
<!DOCTYPE svg PUBLIC "-//W3C//DTD SVG 20010904//EN"
 "http://www.w3.org/TR/2001/REC-SVG-20010904/DTD/svg10.dtd">
<svg version="1.0" xmlns="http://www.w3.org/2000/svg"
 width="336.000000pt" height="448.000000pt" viewBox="0 0 336.000000 448.000000"
 preserveAspectRatio="xMidYMid meet">

<g transform="translate(0.000000,448.000000) scale(0.100000,-0.100000)"
fill="#000000" stroke="none">
<path d="M808 3893 c7 -3 16 -2 19 1 4 3 -2 6 -13 5 -11 0 -14 -3 -6 -6z"/>
<path d="M985 3875 c17 -7 32 -11 35 -9 7 8 -24 24 -45 23 -15 0 -13 -4 10
-14z"/>
<path d="M977 3414 c-4 -4 -4 -10 -1 -15 6 -10 34 0 34 12 0 10 -24 12 -33 3z"/>
<path d="M883 2998 c1 -8 -9 -13 -26 -14 -15 -1 -29 -3 -32 -5 -2 -3 -5 -41
-6 -84 -1 -44 -6 -86 -11 -92 -7 -9 -7 -13 1 -13 14 0 15 -154 0 -181 -19 -36
-28 -10 -23 69 14 254 13 302 -7 313 -12 6 -19 6 -19 0 0 -5 -9 -12 -20 -16
-12 -4 -19 -15 -19 -28 4 -84 -16 -346 -28 -370 -11 -21 -11 -32 -2 -50 23
-44 61 -88 85 -97 29 -11 34 -56 7 -63 -11 -3 -7 -5 10 -6 45 -2 30 -20 -20
-24 -34 -2 -26 -4 28 -5 79 -2 96 -12 83 -47 -5 -12 -24 -15 -85 -15 -78 0
-79 0 -79 25 0 14 -3 25 -7 25 -5 0 -8 -15 -7 -32 1 -26 6 -34 25 -38 23 -6
23 -6 -8 -20 -50 -22 -56 -60 -9 -60 12 0 27 -5 34 -12 9 -9 12 -9 12 0 0 7
16 12 43 12 l43 0 1 -62 c1 -35 6 -75 12 -90 9 -23 8 -28 -4 -28 -8 0 -15 -6
-15 -14 0 -15 112 -31 152 -21 50 11 97 12 101 1 6 -17 -4 -37 -15 -30 -16 10
-178 12 -178 2 0 -4 -10 -8 -22 -8 -27 -1 -62 -25 -55 -38 10 -16 -10 -174
-23 -182 -17 -11 -40 -1 -40 16 0 8 -5 14 -11 14 -5 0 -8 4 -5 9 7 11 -22 23
-35 15 -13 -8 -11 -42 3 -46 8 -3 4 -9 -10 -17 -30 -16 -28 -49 3 -61 22 -8
24 -13 15 -29 -18 -35 -11 -49 35 -72 38 -19 48 -21 71 -10 33 15 47 4 42 -35
-3 -28 -5 -29 -55 -28 -29 1 -50 -2 -47 -7 7 -11 95 -11 112 0 8 5 12 21 11
37 -4 38 5 51 41 59 28 6 29 8 23 50 -5 41 -3 45 21 56 26 12 34 33 17 44 -11
6 -3 75 12 93 7 9 26 11 67 6 52 -6 59 -4 64 14 6 19 18 20 549 24 414 4 544
2 552 -7 6 -7 37 -12 80 -11 l70 1 3 -48 c2 -29 -2 -55 -10 -64 -10 -13 -9
-18 8 -32 20 -16 21 -30 27 -296 3 -154 3 -328 0 -387 l-6 -108 -94 0 c-69 0
-100 4 -118 16 -42 27 -145 30 -207 6 -29 -11 -69 -19 -88 -17 -19 2 -159 4
-310 5 -197 2 -282 0 -298 -9 -12 -6 -22 -9 -22 -6 0 3 -17 -2 -37 -11 -32
-15 -85 -18 -338 -21 -223 -4 -311 -8 -343 -19 -23 -8 -69 -14 -101 -14 -69 0
-66 2 -290 -200 l-160 -145 -1 -232 0 -233 1680 0 1680 0 0 454 0 454 -30 7
c-37 8 -80 58 -80 93 0 36 -40 118 -51 101 -13 -22 -34 5 -48 63 -8 29 -16 58
-19 63 -4 6 -7 48 -8 94 -1 69 -5 87 -20 98 -23 16 -58 17 -72 1 -5 -7 -12
-83 -14 -168 -4 -107 -10 -165 -20 -189 l-15 -33 -11 31 c-18 52 -42 35 -56
-40 -4 -24 -17 -45 -41 -63 -19 -15 -40 -43 -47 -62 -14 -38 -47 -54 -114 -54
-41 0 -43 2 -49 33 -3 17 -9 185 -15 372 -6 187 -13 350 -16 362 -5 18 -1 25
20 33 26 10 35 33 16 45 -5 3 -10 34 -10 69 0 92 -23 156 -76 215 -62 69 -138
105 -226 106 -41 1 -73 6 -83 15 -15 13 -19 12 -34 -7 -17 -21 -23 -21 -564
-26 -459 -5 -547 -3 -547 8 0 22 -14 25 -46 9 -24 -13 -35 -13 -66 -3 -36 11
-38 15 -38 54 0 22 5 46 11 52 13 13 4 33 -17 33 -21 0 -17 31 6 37 15 4 20
14 20 39 0 31 -2 34 -31 34 -30 0 -31 1 -24 39 4 22 2 42 -3 45 -6 3 5 22 23
41 54 60 62 82 42 116 -21 37 -13 41 69 37 50 -3 61 -6 69 -25 5 -13 13 -23
16 -23 6 0 19 112 14 118 -2 2 -13 -6 -24 -17 -18 -18 -29 -20 -79 -15 -31 4
-61 10 -66 15 -5 4 -10 68 -11 141 -3 160 -10 183 -62 197 -49 14 -54 14 -50
-1z m-26 -370 c-2 -18 -4 -4 -4 32 0 36 2 50 4 33 2 -18 2 -48 0 -65z m-47
-98 c0 -5 -7 -10 -15 -10 -8 0 -15 5 -15 10 0 6 7 10 15 10 8 0 15 -4 15 -10z
m23 -130 c3 -11 1 -23 -4 -26 -5 -3 -9 6 -9 20 0 31 6 34 13 6z m-20 -147 c-7
-2 -21 -2 -30 0 -10 3 -4 5 12 5 17 0 24 -2 18 -5z m-25 -50 c-10 -2 -26 -2
-35 0 -10 3 -2 5 17 5 19 0 27 -2 18 -5z m1422 -239 c0 -7 -3 -15 -7 -17 -5
-3 -246 -7 -538 -8 -459 -4 -530 -2 -530 11 0 12 46 15 309 17 171 2 312 6
315 8 3 3 105 5 228 4 174 -2 223 -5 223 -15z m80 7 c0 -12 -20 -25 -27 -18
-7 7 6 27 18 27 5 0 9 -4 9 -9z m145 -4 c17 -7 31 -20 31 -29 2 -20 -12 -24
-18 -6 -2 6 -31 13 -66 16 -44 3 -62 8 -62 18 0 17 71 18 115 1z m122 -123 c9
-40 8 -126 -1 -132 -6 -3 -12 0 -14 7 -3 9 -7 9 -17 1 -16 -14 -82 -3 -88 14
-10 25 5 66 24 66 11 0 19 5 19 10 0 6 11 15 25 20 14 5 25 17 25 26 0 22 22
13 27 -12z m1 -568 c-1 -182 -3 -319 -5 -303 -2 15 -9 27 -14 27 -9 0 -12 -28
-11 -112 1 -35 -3 -46 -12 -42 -20 8 -26 61 -27 244 0 91 -4 188 -9 215 l-7
50 -3 -40 c-2 -34 -4 -30 -10 25 -8 61 -14 204 -11 243 0 10 9 17 20 17 11 0
22 4 25 8 3 5 19 7 35 4 l30 -4 -1 -332z m-94 -533 c5 -12 9 -14 18 -5 15 15
58 16 58 2 0 -5 7 -10 15 -10 8 0 15 -7 15 -15 0 -20 -65 -20 -103 0 -15 8
-25 10 -22 5 4 -6 -1 -10 -9 -10 -19 0 -21 21 -4 38 16 16 25 15 32 -5z m36
-104 c27 -6 48 -15 44 -20 -3 -5 10 -9 28 -10 33 -1 33 -1 6 -9 -34 -10 -168
28 -146 41 16 11 8 11 68 -2z"/>
<path d="M810 2128 c0 -7 5 -20 10 -28 8 -12 10 -9 10 13 0 15 -4 27 -10 27
-5 0 -10 -6 -10 -12z"/>
<path d="M822 2055 c0 -16 2 -22 5 -12 2 9 2 23 0 30 -3 6 -5 -1 -5 -18z"/>
</g>
</svg>
