<?xml version="1.0" standalone="no"?>
<!DOCTYPE svg PUBLIC "-//W3C//DTD SVG 20010904//EN"
 "http://www.w3.org/TR/2001/REC-SVG-20010904/DTD/svg10.dtd">
<svg version="1.0" xmlns="http://www.w3.org/2000/svg"
 width="339.000000pt" height="336.000000pt" viewBox="0 0 339.000000 336.000000"
 preserveAspectRatio="xMidYMid meet">

<g transform="translate(0.000000,336.000000) scale(0.100000,-0.100000)"
fill="#000000" stroke="none">
<path d="M0 1680 l0 -1680 1695 0 1695 0 0 356 c0 349 0 356 -20 351 -18 -5
-19 -1 -12 42 9 62 9 195 -1 254 -8 43 -7 47 12 47 l21 0 0 1155 0 1155 -1695
0 -1695 0 0 -1680z m539 1036 c35 -18 55 -42 42 -50 -5 -3 -12 -28 -16 -54 -7
-55 -43 -102 -77 -102 -20 0 -76 52 -80 74 -11 77 12 128 63 137 19 4 35 7 37
8 2 0 15 -5 31 -13z m704 -49 c46 -20 62 -41 42 -57 -8 -7 -15 -19 -15 -26 0
-23 -100 -112 -119 -107 -34 9 -72 112 -51 138 7 8 9 15 4 16 -9 0 14 12 71
35 17 6 31 12 33 13 1 0 17 -5 35 -12z m669 -51 c23 -28 23 -29 -16 -71 -27
-28 -40 -35 -57 -30 -13 4 -34 0 -55 -11 -56 -31 -89 5 -62 66 9 20 20 30 35
30 12 0 35 11 50 25 33 29 76 26 105 -9z m509 -46 c29 -16 23 -39 -14 -55 -19
-8 -40 -21 -47 -30 -36 -43 -120 -56 -133 -20 -17 42 40 107 85 98 14 -3 34 0
45 6 23 13 39 14 64 1z m482 -22 c19 -10 82 -22 180 -32 15 -2 31 -4 37 -5 6
-1 5 -11 -2 -26 -11 -24 -11 -25 -25 -5 -13 18 -22 19 -86 14 -40 -3 -91 -13
-114 -21 -23 -8 -51 -12 -63 -8 -16 5 -26 1 -36 -13 -20 -28 -61 -36 -90 -17
-31 20 -30 28 7 63 23 21 46 32 80 36 27 4 51 11 54 16 8 13 32 13 58 -2z
m227 -203 c0 -15 6 -25 15 -25 13 0 35 -55 35 -88 0 -7 -14 -26 -32 -42 l-31
-29 -30 21 c-16 12 -32 17 -36 11 -3 -5 -23 -17 -43 -26 -43 -20 -98 -15 -122
11 -12 15 -13 21 -1 50 20 46 74 68 133 54 40 -9 44 -8 52 13 5 13 14 26 19
30 6 3 11 15 11 26 0 10 7 19 15 19 9 0 15 -9 15 -25z m-2308 -40 c54 -5 81
-11 86 -22 7 -12 12 -13 29 -3 16 10 36 10 99 1 155 -23 397 -39 476 -30 43 4
90 4 108 -1 38 -11 256 -13 435 -5 166 8 249 6 253 -6 2 -5 8 -9 13 -9 6 0 8
4 4 9 -3 6 21 8 62 5 38 -3 140 -9 228 -15 88 -5 166 -12 173 -14 11 -4 12
-60 7 -313 -4 -169 -9 -308 -10 -310 -2 -2 -19 1 -39 6 -30 9 -38 8 -45 -6 -7
-13 -13 -14 -21 -5 -15 14 -252 5 -262 -10 -4 -7 -17 -6 -37 3 -17 7 -39 9
-48 5 -10 -4 -76 -9 -148 -11 -283 -10 -532 -23 -561 -29 -19 -4 -34 -3 -38 4
-8 12 1 17 55 25 19 4 43 12 52 19 15 11 15 14 0 32 -13 16 -15 17 -10 3 6
-17 -6 -18 -143 -20 -83 -1 -160 -2 -172 -2 -12 -1 -23 4 -25 11 -6 16 63 29
80 15 14 -12 216 -10 236 2 6 4 8 12 5 18 -4 6 1 8 15 3 17 -5 21 -2 22 17 1
17 3 18 6 6 2 -10 8 -18 13 -18 5 0 7 -7 4 -15 -7 -17 21 -21 31 -5 3 6 0 10
-7 10 -9 0 -9 3 2 10 21 13 87 13 96 -1 4 -7 0 -9 -14 -5 -11 4 -23 2 -27 -4
-4 -6 7 -10 28 -10 40 0 51 8 35 27 -8 11 -7 12 6 7 11 -4 16 -1 16 10 0 11 9
15 35 14 28 -1 35 -5 35 -21 0 -13 -5 -17 -15 -14 -17 7 -30 -9 -15 -18 8 -5
7 -11 -1 -21 -6 -8 -8 -14 -3 -14 13 0 41 20 29 20 -5 0 -2 5 8 11 9 5 17 19
17 31 0 17 5 20 30 16 17 -3 30 -1 30 3 0 4 14 7 30 7 17 -1 36 4 42 10 7 7
24 12 40 12 33 0 96 -35 76 -43 -9 -4 -7 -6 5 -6 9 -1 17 -5 17 -11 0 -5 4
-10 9 -10 5 0 9 16 8 35 -1 46 8 52 46 32 18 -9 57 -19 87 -22 33 -3 57 -11
63 -20 9 -17 43 -20 53 -4 3 6 14 9 24 6 22 -6 50 10 50 29 0 12 4 12 22 2 12
-7 28 -19 36 -25 7 -7 18 -13 24 -13 7 0 7 4 0 13 -5 6 -12 31 -14 55 -3 33 0
42 12 42 8 0 21 -9 27 -20 10 -15 18 -17 35 -11 19 7 22 16 25 94 4 74 2 87
-11 87 -9 0 -16 5 -16 10 0 6 7 10 15 10 11 0 15 12 15 51 0 27 -4 48 -9 45
-8 -5 -17 13 -35 68 -5 15 -9 17 -18 8 -7 -7 -17 -12 -22 -12 -6 0 -4 4 4 10
12 7 12 13 1 34 -11 19 -18 23 -34 17 -19 -7 -26 -17 -47 -61 -12 -26 -39 -24
-46 4 -7 31 -20 34 -29 6 -8 -24 -21 -26 -29 -5 -3 8 -12 15 -20 15 -7 0 -13
8 -12 18 1 13 -7 17 -31 18 -17 0 -37 5 -45 11 -9 7 -23 7 -48 -3 -19 -7 -31
-13 -26 -13 19 -2 -29 -30 -51 -31 -12 0 -23 -6 -26 -12 -4 -12 -47 73 -47 93
0 5 -22 9 -50 9 -40 0 -48 -3 -44 -15 4 -9 -1 -17 -10 -20 -9 -3 -24 -8 -33
-11 -10 -4 -31 -7 -48 -7 -16 0 -35 -4 -42 -9 -6 -5 -30 -4 -58 3 -38 10 -49
9 -55 -1 -7 -11 -14 -11 -35 -2 -36 17 -55 15 -55 -5 0 -14 -3 -13 -16 5 -12
18 -19 21 -30 11 -16 -13 -141 -3 -162 13 -18 16 -64 -6 -56 -27 5 -11 -1 -15
-25 -15 -17 0 -31 -4 -31 -10 0 -21 -20 -9 -26 15 -7 28 -18 31 -55 11 -34
-18 -109 -14 -139 7 -14 9 -39 17 -57 17 -17 0 -35 5 -38 10 -3 6 -20 10 -36
10 -19 0 -38 9 -53 25 -13 14 -26 25 -29 25 -3 0 -9 -20 -13 -45 -3 -25 -10
-45 -15 -45 -5 0 -9 5 -9 11 0 6 -7 8 -17 5 -11 -5 -23 1 -34 15 -14 19 -20
21 -47 11 -21 -7 -34 -7 -38 -1 -3 5 -14 7 -24 4 -9 -3 -44 -6 -76 -7 -33 0
-65 -6 -72 -12 -23 -17 -55 -18 -65 -1 -4 8 -12 13 -17 10 -11 -7 -16 12 -19
67 l-2 47 48 4 c48 4 74 3 215 -8z m148 -210 c0 -17 -2 -17 -10 -5 -5 8 -10
24 -10 35 0 17 2 17 10 5 5 -8 10 -24 10 -35z m2197 -347 c41 -38 21 -118 -29
-118 -22 0 -68 43 -68 64 0 18 48 76 63 76 6 0 21 -10 34 -22z m-136 -26 c43
-36 -3 -80 -59 -57 -38 17 -43 47 -9 63 32 15 42 14 68 -6z m-1154 -28 c-3 -3
-12 -4 -19 -1 -8 3 -5 6 6 6 11 1 17 -2 13 -5z m-564 -85 c-5 -3 -48 -9 -98
-13 -90 -6 -90 -6 -65 13 19 15 35 18 77 14 44 -5 54 -3 59 12 7 17 8 17 21
-1 7 -10 10 -21 6 -25z m184 35 c-3 -3 -12 -4 -19 -1 -8 3 -5 6 6 6 11 1 17
-2 13 -5z m-830 -27 c25 11 137 10 143 -1 3 -6 -17 -15 -45 -21 -48 -11 -49
-12 -21 -20 15 -4 59 -5 97 -1 75 7 152 -1 143 -15 -3 -5 -1 -9 4 -9 5 0 12 9
15 20 3 12 14 20 25 20 15 0 19 5 15 21 -5 17 -2 20 18 17 15 -2 25 -12 29
-28 4 -19 13 -26 35 -28 17 -2 34 -8 39 -13 6 -5 26 -9 45 -9 19 0 31 -3 28
-6 -6 -7 -489 -33 -614 -34 l-63 0 0 35 c0 19 5 45 11 58 10 22 15 24 45 15
19 -5 42 -5 51 -1z m890 -53 c6 -19 -209 -36 -226 -18 -11 10 15 19 55 19 24
0 44 3 44 6 0 11 123 4 127 -7z m-262 -14 c3 -5 -3 -10 -15 -10 -12 0 -18 5
-15 10 3 6 10 10 15 10 5 0 12 -4 15 -10z m1853 -126 c-2 -33 26 -75 35 -51 7
20 19 1 20 -34 2 -33 1 -33 -56 -43 -37 -7 -62 -17 -68 -28 -6 -10 -6 -18 -2
-19 14 -1 -31 -18 -50 -18 -9 -1 -25 8 -34 19 -14 16 -30 20 -75 20 -63 0 -98
21 -98 60 0 45 91 50 112 5 10 -22 11 -22 29 -4 28 28 68 35 101 16 16 -9 28
-12 28 -6 0 6 9 22 20 36 13 16 20 41 20 67 0 31 3 37 10 26 6 -8 9 -29 8 -46z
m-673 -120 c11 -18 25 -24 49 -24 44 0 66 -9 66 -26 0 -17 5 -16 -102 -19 -73
-3 -89 -1 -103 15 -15 17 -15 21 -1 48 24 47 62 50 91 6z m-510 -24 c12 -13
31 -20 55 -20 28 0 41 -6 57 -28 l21 -29 -24 -26 c-30 -32 -39 -33 -82 -7 -18
11 -45 20 -60 20 -16 0 -33 5 -40 12 -16 16 -15 85 1 91 27 11 55 6 72 -13z
m-503 -72 c15 -18 28 -41 28 -50 0 -25 -45 -52 -75 -44 -14 3 -37 9 -52 12
-60 14 -83 59 -50 100 19 24 25 26 71 20 42 -4 56 -12 78 -38z m-701 -43 c22
-14 44 -38 50 -52 8 -22 6 -30 -18 -55 -33 -34 -68 -36 -107 -4 -26 21 -28 29
-23 65 6 45 22 71 43 71 8 0 32 -11 55 -25z m1744 -302 c39 -6 38 -6 -48 -28
-63 -16 -119 -23 -199 -23 -61 -1 -125 -3 -142 -7 -29 -5 -30 -5 -6 6 37 15
147 37 205 40 28 1 59 9 70 16 12 9 32 12 50 8 17 -3 48 -9 70 -12z m-803 -83
c-2 -44 -7 -78 -11 -75 -5 2 -51 -10 -102 -27 -87 -30 -105 -32 -249 -35 -85
-1 -181 2 -212 8 -58 12 -105 6 -80 -10 10 -6 10 -11 -3 -21 -13 -11 -19 -10
-35 5 -10 9 -34 18 -52 20 -141 16 -229 21 -267 17 -30 -3 -46 0 -52 9 -8 12
-11 12 -19 -1 -7 -11 -12 -12 -18 -3 -4 6 -20 15 -35 18 -34 9 -26 18 28 33
63 18 127 24 120 12 -4 -6 11 -4 32 5 31 12 721 105 873 118 25 2 54 4 65 5
19 2 20 -3 17 -78z"/>
<path d="M2340 2210 c0 -5 5 -10 10 -10 6 0 10 5 10 10 0 6 -4 10 -10 10 -5 0
-10 -4 -10 -10z"/>
<path d="M2493 2174 c1 -41 9 -43 28 -6 7 15 15 29 16 32 2 3 -8 6 -21 6 -21
2 -24 -2 -23 -32z"/>
<path d="M2190 1660 c0 -5 5 -10 10 -10 6 0 10 5 10 10 0 6 -4 10 -10 10 -5 0
-10 -4 -10 -10z"/>
<path d="M2205 1630 c-39 -6 -39 -6 -12 -14 31 -9 77 -1 77 14 0 11 -4 11 -65
0z"/>
<path d="M2445 1629 c-28 -6 -26 -7 13 -8 42 -1 53 3 30 11 -7 2 -26 1 -43 -3z"/>
<path d="M2368 1623 c7 -3 16 -2 19 1 4 3 -2 6 -13 5 -11 0 -14 -3 -6 -6z"/>
<path d="M1724 1609 c-2 -4 4 -13 15 -18 14 -8 22 -7 31 4 14 17 14 17 -18 20
-12 1 -25 -1 -28 -6z"/>
<path d="M1790 1610 c0 -11 21 -11 65 0 27 7 25 8 -17 9 -27 0 -48 -3 -48 -9z"/>
</g>
</svg>
