<?xml version="1.0" standalone="no"?>
<!DOCTYPE svg PUBLIC "-//W3C//DTD SVG 20010904//EN"
 "http://www.w3.org/TR/2001/REC-SVG-20010904/DTD/svg10.dtd">
<svg version="1.0" xmlns="http://www.w3.org/2000/svg"
 width="285.000000pt" height="448.000000pt" viewBox="0 0 285.000000 448.000000"
 preserveAspectRatio="xMidYMid meet">

<g transform="translate(0.000000,448.000000) scale(0.100000,-0.100000)"
fill="#000000" stroke="none">
<path d="M820 3958 c0 -60 -3 -68 -28 -90 -15 -13 -31 -32 -35 -42 -4 -10 -12
-421 -17 -915 -6 -493 -14 -1125 -19 -1406 -5 -280 -7 -522 -4 -536 5 -27 5
-27 124 -34 66 -4 121 -10 123 -14 2 -3 7 -44 10 -90 3 -52 10 -88 18 -93 10
-6 10 -10 -2 -17 -8 -6 -12 -12 -10 -15 3 -2 13 2 24 9 16 12 17 16 3 29 -11
12 -13 24 -5 58 5 24 13 63 18 88 35 174 43 210 50 210 4 0 7 -18 6 -39 0 -22
-4 -34 -8 -28 -5 7 -8 -2 -9 -20 -1 -18 -2 -39 -3 -45 -1 -7 7 -12 17 -10 12
2 19 -6 24 -28 4 -21 14 -35 29 -41 13 -4 24 -14 24 -21 0 -7 5 -20 10 -28 9
-13 11 -13 20 0 8 13 10 12 10 -3 0 -9 5 -16 12 -15 6 2 22 -15 34 -37 24 -44
28 -56 17 -54 -5 1 -23 1 -40 0 -31 -1 -32 -2 -22 -25 16 -33 55 -42 77 -17
25 28 66 35 84 13 34 -42 58 -132 34 -132 -16 0 -26 -191 -23 -427 l2 -143 48
0 47 0 1 243 c2 286 3 319 17 417 13 91 20 110 38 110 19 0 17 17 -5 39 -12
12 -16 23 -10 34 5 9 8 28 7 44 -3 45 1 83 10 82 23 -4 32 4 32 25 0 29 -19
45 -31 25 -21 -35 -27 -39 -42 -33 -26 9 -21 20 21 45 48 30 78 59 86 86 9 30
-10 99 -30 107 -14 5 -15 -1 -9 -43 5 -39 3 -49 -9 -54 -38 -15 -56 13 -56 90
0 41 -1 42 -26 33 -37 -14 -40 -12 -16 9 12 10 22 23 22 30 0 6 5 11 11 11 14
0 3 269 -11 284 -5 5 -5 17 1 28 6 11 8 22 5 25 -3 3 -8 -2 -12 -11 -3 -9 -11
-16 -16 -16 -7 0 -7 4 -1 13 16 19 22 67 9 67 -7 0 -13 23 -14 61 -2 34 -7 70
-12 80 -13 23 -13 169 -1 169 5 0 12 -10 14 -22 3 -15 5 -11 6 13 0 19 -4 40
-10 46 -8 8 -6 12 7 16 45 13 100 16 113 8 13 -8 11 -13 -7 -28 -20 -16 -22
-29 -24 -127 -2 -80 1 -111 10 -114 7 -2 10 -8 6 -13 -3 -5 -1 -9 4 -9 12 0
11 -34 -2 -42 -6 -5 -2 -8 11 -8 12 0 25 -5 28 -10 3 -6 1 -10 -5 -10 -6 0
-15 -10 -20 -22 -5 -13 -9 -17 -9 -10 -1 6 -5 12 -11 12 -5 0 -9 -10 -7 -22 1
-18 -3 -22 -18 -20 -20 2 -20 2 -1 -13 17 -13 20 -32 24 -147 2 -73 8 -137 13
-142 17 -18 57 37 57 77 0 39 7 55 19 44 3 -4 11 -55 18 -114 7 -74 15 -107
23 -105 14 2 16 -22 3 -47 -9 -16 -1 -112 17 -216 6 -36 10 -40 37 -41 17 0
33 4 36 9 4 6 18 6 37 -1 25 -8 32 -8 36 5 9 22 7 61 -3 81 -13 24 -40 166
-46 237 -5 71 -13 124 -19 134 -3 4 -12 49 -21 101 -9 52 -24 131 -34 175 -10
44 -26 115 -36 158 -13 62 -20 77 -32 73 -11 -4 -13 -2 -10 9 4 8 2 17 -3 20
-6 4 -10 21 -10 40 0 18 -7 40 -15 49 -17 17 -20 36 -5 36 6 0 10 -5 10 -11 0
-6 13 -23 28 -39 33 -33 32 -25 142 -550 108 -516 104 -500 123 -506 10 -3 33
1 50 9 18 8 52 15 76 15 24 1 45 3 48 6 7 7 -17 1163 -24 1182 -3 8 -9 11 -14
8 -8 -5 -14 37 -11 76 1 8 2 45 3 83 1 37 5 67 9 67 4 0 4 17 0 37 -5 20 -7
40 -4 44 2 4 0 10 -5 13 -5 4 -13 -8 -17 -26 -9 -34 -10 -45 -13 -90 -2 -38
-21 -35 -21 3 0 16 -4 28 -8 25 -5 -3 -8 -26 -8 -51 1 -25 -3 -44 -8 -42 -16
5 -20 94 -10 210 4 44 2 73 -6 81 -8 11 -8 15 1 18 8 3 12 34 11 99 -1 135 -2
149 -13 149 -5 0 -9 5 -9 10 0 6 7 10 16 10 9 0 14 6 12 13 -3 6 -16 12 -29
12 -19 0 -23 -5 -21 -23 2 -19 -2 -22 -18 -17 -11 4 -20 2 -20 -4 0 -6 -7 -11
-15 -11 -8 0 -15 5 -15 12 0 8 -3 9 -10 2 -6 -6 -12 -38 -13 -72 -1 -52 -4
-62 -21 -66 -11 -3 -24 0 -28 7 -4 7 -6 3 -5 -10 0 -12 4 -20 8 -17 4 2 5 -5
2 -16 -8 -30 -23 -24 -23 8 0 16 -7 37 -16 48 -11 14 -14 15 -11 3 3 -9 2 -21
-2 -28 -12 -18 -31 10 -36 54 -6 42 -12 55 -26 55 -6 0 -7 -9 -4 -20 10 -31
-1 -24 -24 16 -24 41 -28 67 -6 38 14 -18 15 -17 13 16 -2 19 -8 35 -15 35 -6
0 -15 4 -20 9 -4 5 -3 6 4 2 7 -4 17 2 23 14 6 11 17 20 25 20 8 0 15 4 15 8
0 11 102 88 112 85 4 -2 8 5 8 16 0 10 7 24 15 31 8 7 15 18 15 25 0 7 8 23
18 36 24 31 52 123 51 163 l-1 31 -7 -29 c-3 -16 -12 -31 -18 -34 -14 -4 -17
10 -6 22 4 4 8 13 9 19 0 7 2 21 3 32 1 15 3 17 10 6 17 -26 20 7 11 93 -6 47
-8 99 -5 114 3 15 2 21 -1 15 -3 -7 -9 -13 -14 -13 -4 0 0 20 9 45 18 49 31
66 31 44 0 -8 -5 -20 -12 -27 -6 -6 -9 -14 -6 -17 3 -4 11 0 17 7 57 70 60 73
61 55 0 -34 20 -6 20 29 0 31 2 34 19 24 40 -21 43 -14 41 98 0 59 1 118 2
132 4 31 76 27 -639 36 l-583 7 0 -65z m1175 -148 c3 -5 1 -10 -4 -10 -6 0
-11 5 -11 10 0 6 2 10 4 10 3 0 8 -4 11 -10z m-27 -80 c-2 -6 -8 -6 -18 0 -13
9 -13 11 0 20 15 10 25 0 18 -20z m-469 -72 c0 -33 -3 -46 -8 -35 -7 18 -3 87
5 87 2 0 4 -24 3 -52z m1 -104 c0 -19 -4 -33 -8 -30 -8 5 -4 66 4 66 2 0 4
-16 4 -36z m20 -54 c0 -5 -4 -10 -10 -10 -5 0 -10 5 -10 10 0 6 5 10 10 10 6
0 10 -4 10 -10z m150 -66 c0 -13 -4 -24 -9 -24 -11 0 -22 40 -15 52 9 15 24
-2 24 -28z m200 -609 c0 -14 -4 -25 -10 -25 -5 0 -10 11 -10 25 0 14 5 25 10
25 6 0 10 -11 10 -25z m-143 -127 c-3 -8 -6 -5 -6 6 -1 11 2 17 5 13 3 -3 4
-12 1 -19z m76 10 c2 -7 1 -22 -3 -33 -6 -17 -8 -15 -12 13 -4 31 5 45 15 20z
m-298 -28 c4 -6 -5 -10 -20 -10 -15 0 -24 4 -20 10 3 6 12 10 20 10 8 0 17 -4
20 -10z m58 -13 c-8 -12 -10 -46 -12 -199 0 -43 -4 -78 -9 -78 -8 0 -5 213 4
268 3 18 9 30 15 27 5 -4 6 -12 2 -18z m146 -9 c2 39 21 24 21 -17 0 -35 -3
-39 -32 -45 -17 -3 -33 -4 -36 -1 -3 3 0 5 6 5 6 0 9 6 6 14 -3 8 -1 17 5 21
6 3 11 16 12 28 1 20 2 20 9 -3 8 -24 8 -24 9 -2z m66 -58 c3 -5 1 -10 -4 -10
-6 0 -11 5 -11 10 0 6 2 10 4 10 3 0 8 -4 11 -10z m-37 -47 c-10 -2 -28 -2
-40 0 -13 2 -5 4 17 4 22 1 32 -1 23 -4z m-188 -233 c0 -5 -4 -10 -10 -10 -5
0 -10 5 -10 10 0 6 5 10 10 10 6 0 10 -4 10 -10z m-7 -117 c-8 -65 -13 -67
-13 -5 0 29 4 52 10 52 6 0 7 -19 3 -47z m-243 -153 c0 -5 -4 -10 -10 -10 -5
0 -10 5 -10 10 0 6 5 10 10 10 6 0 10 -4 10 -10z m287 -472 c-2 -13 -4 -5 -4
17 -1 22 1 32 4 23 2 -10 2 -28 0 -40z m10 -60 c-3 -8 -6 -5 -6 6 -1 11 2 17
5 13 3 -3 4 -12 1 -19z m-281 -92 c-8 -33 -36 -35 -36 -3 0 28 20 51 33 38 5
-5 7 -21 3 -35z m-2 -62 c3 -8 2 -12 -4 -9 -6 3 -10 10 -10 16 0 14 7 11 14
-7z m456 -204 c0 -13 -1 -13 -10 0 -5 8 -10 22 -10 30 0 13 1 13 10 0 5 -8 10
-22 10 -30z m-650 -120 c0 -21 -5 -42 -11 -45 -15 -10 -16 -6 -11 47 5 56 22
54 22 -2z m360 30 c0 -5 -2 -10 -4 -10 -3 0 -8 5 -11 10 -3 6 -1 10 4 10 6 0
11 -4 11 -10z m307 -52 c-3 -8 -6 -5 -6 6 -1 11 2 17 5 13 3 -3 4 -12 1 -19z
m-512 -28 c0 -13 -6 -25 -12 -27 -9 -3 -13 6 -13 27 0 21 4 30 13 28 6 -3 12
-15 12 -28z m135 0 c0 -5 -12 -10 -26 -10 -14 0 -23 4 -19 10 3 6 15 10 26 10
10 0 19 -4 19 -10z m40 6 c0 -3 -4 -8 -10 -11 -5 -3 -10 -1 -10 4 0 6 5 11 10
11 6 0 10 -2 10 -4z m270 -6 c0 -5 -4 -10 -10 -10 -5 0 -10 5 -10 10 0 6 5 10
10 10 6 0 10 -4 10 -10z m-315 -30 c-3 -5 1 -10 9 -10 9 0 16 5 16 11 0 5 4 8
9 5 5 -3 7 -15 4 -27 -4 -16 -8 -17 -14 -7 -6 9 -9 6 -10 -12 -2 -24 -2 -24
-6 -2 -3 17 -8 20 -17 13 -16 -14 -40 3 -33 23 4 9 16 16 27 16 12 0 18 -4 15
-10z"/>
<path d="M1997 3703 c6 -16 8 -16 23 1 9 12 8 15 -8 13 -12 0 -18 -6 -15 -14z"/>
<path d="M1914 3505 c-3 -8 -4 -20 -2 -27 3 -7 7 -1 10 15 6 29 1 36 -8 12z"/>
<path d="M1844 3075 c-10 -25 16 -46 50 -43 33 3 39 20 9 24 -10 2 -23 10 -29
18 -14 20 -23 20 -30 1z"/>
<path d="M1800 3060 c0 -19 3 -21 12 -12 9 9 9 15 0 24 -9 9 -12 7 -12 -12z"/>
<path d="M1810 2920 c0 -11 2 -20 4 -20 2 0 6 9 9 20 3 11 1 20 -4 20 -5 0 -9
-9 -9 -20z"/>
<path d="M1730 2790 c0 -5 5 -10 10 -10 6 0 10 5 10 10 0 6 -4 10 -10 10 -5 0
-10 -4 -10 -10z"/>
<path d="M1459 2015 c0 0 -2 -9 -4 -21 -4 -17 1 -21 25 -21 24 0 30 5 30 23 0
17 -5 22 -25 20 -14 0 -25 -1 -26 -1z"/>
<path d="M1620 1961 c0 -5 5 -13 10 -16 6 -3 10 -2 10 4 0 5 -4 13 -10 16 -5
3 -10 2 -10 -4z"/>
<path d="M1490 1931 c0 -6 5 -13 10 -16 6 -3 10 1 10 9 0 9 -4 16 -10 16 -5 0
-10 -4 -10 -9z"/>
<path d="M1450 1865 c0 -19 4 -35 8 -35 4 0 6 16 4 35 -2 19 -6 35 -8 35 -2 0
-4 -16 -4 -35z"/>
<path d="M1421 1854 c0 -11 3 -14 6 -6 3 7 2 16 -1 19 -3 4 -6 -2 -5 -13z"/>
<path d="M1568 1310 c-16 -14 -28 -30 -28 -36 0 -12 34 -38 46 -35 5 1 12 -13
15 -31 6 -30 6 -29 7 12 1 25 -2 61 -6 80 l-7 35 -27 -25z"/>
<path d="M1612 1075 c0 -33 3 -78 7 -100 l9 -40 0 45 c0 25 -3 70 -8 100 l-7
55 -1 -60z"/>
<path d="M1572 1058 c-16 -16 -15 -29 4 -67 21 -42 30 -33 26 28 -4 53 -9 60
-30 39z"/>
<path d="M1327 609 c-6 -22 14 -36 34 -24 8 6 7 10 -5 17 -9 5 -14 13 -11 19
4 5 2 9 -3 9 -5 0 -12 -9 -15 -21z"/>
<path d="M1345 560 c3 -5 8 -10 11 -10 2 0 4 5 4 10 0 6 -5 10 -11 10 -5 0 -7
-4 -4 -10z"/>
</g>
</svg>
